<?xml version="1.0" encoding="UTF-8"?>
<svg id="Layer_1" data-name="Layer 1" xmlns="http://www.w3.org/2000/svg" viewBox="0 0 2472.98 1454.64">
  <defs>
    <style>
      .cls-1 {
        fill: #0033b3;
      }

      .cls-1, .cls-2 {
        stroke-width: 0px;
      }

      .cls-2 {
        fill: #00b6bf;
      }
    </style>
  </defs>
  <path class="cls-2" d="m2356.61,1331.92c-191.39,44.59-589.91,122.93-1122.34,122.71-529.93-.22-926.62-78.15-1117.89-122.71v-211.04c168.69,44.89,570.58,138.13,1122.69,137.84,549.12-.29,948.82-92.94,1117.54-137.84v211.04Z"/>
  <g>
    <path class="cls-1" d="m0,280.95l.09,713.77,237.85.18.31-302.62,61.94,125.04c16.58,33.47,50.61,54.73,87.96,54.95h0c37.8.22,72.42-21.15,89.17-55.04l61.62-124.72.9,302.39,237.78-.04V282.39l-228.1.72-56.53,116.11c-41.92,86.1-164.46,86.49-206.92.66l-58.23-117.67c-75.95-.42-151.9-.84-227.85-1.26Z"/>
    <path class="cls-1" d="m866.22,281.36l-.13,713.61,554.95-.06v-130.8c0-24.92-20.21-45.13-45.13-45.12l-226.7.08c-24.97,0-45.22-20.23-45.22-45.21h0c0-24.86,20.15-45.02,45.02-45.03l107.47-.79c29.13-.21,56.46-15.46,70.76-40.85.81-1.44,1.6-2.93,2.36-4.46,1.79-3.59,21.76-45.55.03-89.3-.69-1.38-1.4-2.73-2.12-4.04-14.37-25.85-42.4-41.1-71.97-40.89l-106.48.75c-24.91,0-45.11-20.19-45.12-45.1v-1.81c-.01-24.92,20.19-45.13,45.11-45.13l226.95-.02c24.92,0,45.11-20.2,45.11-45.12v-129.88l-554.89-.84Z"/>
    <path class="cls-1" d="m2118.98,692.15c-23.82-38.04-59.69-53.78-74.02-59.17,16.29-12.65,43.15-33.56,56.21-69.12,23.74-64.66,23.6-163.38-37.62-225.14-65.12-65.7-153.53-57.83-165.71-56.54h-415.65v712.62s426.57.1,426.57.1c7.66.16,141.23.92,201.07-96.07,28.15-45.63,29.84-96.47,30.14-109.8.58-25.86,1.37-61.18-20.99-96.88Zm-289.97,140.3h-59.74c-33.81,0-61.22-27.41-61.22-61.22s27.41-61.22,61.22-61.22h59.74c33.81,0,61.22,27.41,61.22,61.22s-27.41,61.22-61.22,61.22Zm61.22-328.81c0,31.88-25.84,57.72-57.72,57.72h-66.74c-31.88,0-57.72-25.84-57.72-57.72h0c0-31.88,25.84-57.72,57.72-57.72h66.74c31.88,0,57.72,25.84,57.72,57.72h0Z"/>
    <path class="cls-1" d="m2280.43,272.83h113.23c43.65,0,83.11,35.58,79.04,79.04-20,213.55-30.07,430.79-41.92,643.05-73.44,0-118.11,0-191.55,0-12.17-216.84-23.89-428.42-37.83-643.05-2.83-43.56,35.39-79.04,79.04-79.04Z"/>
  </g>
  <rect class="cls-2" x="2209.1" y="0" width="256.03" height="231.41" rx="115.7" ry="115.7"/>
</svg>